<?xml version="1.0" encoding="UTF-8" standalone="no"?>
<svg
   xmlns:dc="http://purl.org/dc/elements/1.1/"
   xmlns:cc="http://creativecommons.org/ns#"
   xmlns:rdf="http://www.w3.org/1999/02/22-rdf-syntax-ns#"
   xmlns:svg="http://www.w3.org/2000/svg"
   xmlns="http://www.w3.org/2000/svg"
   xmlns:sodipodi="http://sodipodi.sourceforge.net/DTD/sodipodi-0.dtd"
   xmlns:inkscape="http://www.inkscape.org/namespaces/inkscape"
   width="64"
   height="64"
   viewBox="0 0 16.933333 16.933333"
   version="1.1"
   id="svg1073"
   sodipodi:docname="drawing.svg"
   inkscape:version="1.0.2 (e86c870879, 2021-01-15)">
  <defs
     id="defs1067" />
  <sodipodi:namedview
     id="base"
     pagecolor="#969696"
     bordercolor="#666666"
     borderopacity="1.0"
     inkscape:pageopacity="0"
     inkscape:pageshadow="2"
     inkscape:zoom="7.9810676"
     inkscape:cx="32.356313"
     inkscape:cy="38.893306"
     inkscape:document-units="mm"
     inkscape:current-layer="layer1"
     inkscape:document-rotation="0"
     showgrid="false"
     inkscape:window-width="1920"
     inkscape:window-height="1016"
     inkscape:window-x="1920"
     inkscape:window-y="27"
     inkscape:window-maximized="1"
     inkscape:pagecheckerboard="false"
     units="px" />
  <metadata
     id="metadata1070">
    <rdf:RDF>
      <cc:Work
         rdf:about="">
        <dc:format>image/svg+xml</dc:format>
        <dc:type
           rdf:resource="http://purl.org/dc/dcmitype/StillImage" />
        <dc:title></dc:title>
      </cc:Work>
    </rdf:RDF>
  </metadata>
  <g
     inkscape:label="Layer 1"
     inkscape:groupmode="layer"
     id="layer1">
    <path
       d="m 14.709765,9.1812609 c 0,-0.1163939 0,-0.176597 0,-0.2368002 l -0.0064,-3.8309421 c -2.29e-4,-0.044147 0.01181,-0.09298 -0.0025,-0.1315557 -0.02231,-0.059982 -0.04835,-0.136684 -0.097,-0.1652254 C 13.563848,4.2106904 12.520322,3.610664 11.47791,3.0084073 10.536954,2.4645699 9.5944384,1.922963 8.6581674,1.3710982 8.5127814,1.2852526 8.4050853,1.2941749 8.2686241,1.3753713 7.7279128,1.6966797 7.1831815,2.0112979 6.6384493,2.3259161 5.2040482,3.1542701 3.7683124,3.9801709 2.3361425,4.8123162 2.2837437,4.8426384 2.2326806,4.9282633 2.2324597,4.9884664 c -0.0078,1.5035241 -0.00872,3.0070472 -0.010051,4.5105708 0,0.046149 0.00891,0.092089 0.015609,0.1565291 0.041273,-0.028317 0.064665,-0.04103 0.084063,-0.058424 0.3518603,-0.315956 0.6985809,-0.6379324 1.052223,-0.9516591 0.029015,-0.025865 0.059093,-0.052399 0.093873,-0.082948 C 3.5950494,8.4510479 3.6933842,8.366763 3.7410982,8.3259586 4.2552831,7.8866971 4.5917517,7.6215784 5.0055909,7.2133109 5.0668974,7.1526583 5.1679151,7.0518765 5.290111,6.921659 c 0.1130493,0.1224139 1.2477676,1.0627008 1.2477676,1.0627008 0,0 3.4331538,-2.5793808 3.5555704,-2.6995642 0.129097,0.1226367 0.338693,0.3201933 0.600244,0.5598915 1.210092,1.1084115 2.254059,1.9421161 3.1725,2.673253 0.197556,0.1569744 0.487644,0.3868621 0.843739,0.6633522 M 1.2901519,8.4650955 c 0,-1.3220216 0.00192,-2.6438202 -0.00318,-3.9658418 C 1.2865206,4.3672517 1.3244453,4.2954543 1.4419349,4.2281151 3.5486114,3.017359 5.6521583,1.8012505 7.7563756,0.58625732 7.9525975,0.47276254 8.1501534,0.36172096 8.3421342,0.24198324 8.4335544,0.1849 8.5057988,0.19091569 8.5974407,0.2444084 c 0.7913411,0.46267372 1.5849133,0.921334 2.3787063,1.3797714 1.200276,0.6936766 2.400998,1.3862389 3.601496,2.0790239 0.320414,0.1850693 0.638824,0.373707 0.963033,0.5518639 0.09877,0.05441 0.101448,0.1291033 0.101006,0.2205224 -0.0044,0.9900119 -0.0092,1.9797993 -0.0088,2.9698112 6.37e-4,1.6310655 0.0012,3.2623528 0.01339,4.8934198 0.0012,0.209373 -0.05953,0.317517 -0.245277,0.422314 -1.101496,0.621879 -2.192293,1.262265 -3.287994,1.894177 -1.051776,0.606716 -2.104887,1.210757 -3.1577794,1.815467 -0.1665603,0.09566 -0.3346865,0.259767 -0.5028078,0.260882 C 8.2908399,16.732503 8.1289641,16.561757 7.9664121,16.468107 6.1384603,15.415217 4.3102813,14.362773 2.4823295,13.309883 2.1235615,13.103185 1.7627901,12.899386 1.4093759,12.683768 1.3523017,12.649208 1.2954346,12.559794 1.2949863,12.495354 c -0.00504,-1.089013 -0.00126,-2.178248 2.212e-4,-3.2674825 4.466e-4,-0.2541922 0,-0.5083844 0,-0.7627995 z"
       style="fill:#231f20;fill-opacity:1;fill-rule:nonzero;stroke:none;stroke-width:0.352777"
       id="path991" />
  </g>
</svg>
